<svg width="47" height="32" viewBox="0 0 47 32" fill="none" xmlns="http://www.w3.org/2000/svg">
<g clip-path="url(#clip0_905_7941)">
<path d="M36.9966 7.48984H36.3531C34.6048 3.04709 29.4995 -0.0665283 23.7089 -0.0665283C16.3797 -0.0665283 10.4352 4.83157 10.4352 10.8496C10.4352 15.3416 13.7361 19.3043 18.7295 20.9658C18.9533 22.8487 20.8695 24.3009 23.1214 24.1163C25.0656 23.9563 26.6182 22.5533 26.758 20.8427C26.9259 18.7752 25.0516 17.0522 22.7438 17.0522C21.5689 17.0522 20.5058 17.5076 19.7645 18.2213C16.1279 16.9661 13.7361 14.0863 13.7361 10.8619C13.7361 6.44376 18.212 2.85018 23.7229 2.85018C28.4645 2.85018 32.5767 5.55767 33.5138 9.27432L33.7935 10.4065H37.0105C40.8989 10.4065 44.06 12.9294 44.06 16.0307C44.06 18.6644 41.7521 20.9411 38.5911 21.5196C38.4092 21.5565 38.2834 21.6796 38.2694 21.8395C38.1994 22.5903 38.0456 23.3287 37.8358 24.0425C37.7658 24.2886 38.0036 24.5347 38.2973 24.4855L38.3673 24.4732C43.5005 23.9194 47.3609 20.3012 47.3609 16.0307C47.333 11.3172 42.7033 7.48984 36.9966 7.48984ZM22.534 19.2797C23.5131 19.169 24.3383 19.8951 24.2124 20.7565C24.1285 21.3473 23.583 21.8149 22.9256 21.8888C21.9465 21.9995 21.1213 21.2734 21.2472 20.412C21.3311 19.8335 21.8766 19.3536 22.534 19.2797Z" fill="#4168B2"/>
<path d="M10.3644 24.5099H11.0078C12.7562 28.9527 17.8614 32.0663 23.6521 32.0663C30.9813 32.0663 36.9258 27.1682 36.9258 21.1502C36.9258 16.6582 33.6248 12.6954 28.6315 11.034C28.4077 9.15107 26.4914 7.69887 24.2395 7.88347C22.2953 8.04346 20.7428 9.44644 20.6029 11.1571C20.4351 13.2246 22.3093 14.9476 24.6172 14.9476C25.7921 14.9476 26.8551 14.4922 27.5964 13.7784C31.233 15.0337 33.6248 17.9135 33.6248 21.1379C33.6248 25.556 29.149 29.1496 23.6381 29.1496C18.8965 29.1496 14.7843 26.4421 13.8472 22.7255L13.5674 21.5932H10.3504C6.46201 21.5932 3.30094 19.0703 3.30094 15.969C3.30094 13.3354 5.6088 11.0586 8.76987 10.4802C8.9517 10.4433 9.07759 10.3202 9.09157 10.1602C9.16151 9.40952 9.31536 8.67111 9.52517 7.95731C9.59511 7.71118 9.35733 7.46504 9.0636 7.51427L8.99366 7.52658C3.86042 8.08038 0 11.6986 0 15.969C0.0279741 20.6948 4.67167 24.5099 10.3644 24.5099ZM24.827 12.72C23.8479 12.8308 23.0227 12.1047 23.1485 11.2432C23.2325 10.6525 23.778 10.1848 24.4353 10.111C25.4144 10.0002 26.2397 10.7263 26.1138 11.5878C26.0299 12.1785 25.4984 12.6462 24.827 12.72Z" fill="#5A96F6"/>
<path d="M36.9966 7.48984H36.3531C34.6048 3.04709 29.4995 -0.0665283 23.7089 -0.0665283C16.3797 -0.0665283 10.4352 4.83157 10.4352 10.8496C10.4352 15.3416 13.7361 19.3043 18.7295 20.9658C18.9533 22.8487 20.8695 24.3009 23.1214 24.1163C25.0656 23.9563 26.6182 22.5533 26.758 20.8427C26.9259 18.7752 25.0516 17.0522 22.7438 17.0522C21.5689 17.0522 20.5058 17.5076 19.7645 18.2213C16.1279 16.9661 13.7361 14.0863 13.7361 10.8619C13.7361 6.44376 18.212 2.85018 23.7229 2.85018C28.4645 2.85018 32.5767 5.55767 33.5138 9.27432L33.7935 10.4065H37.0105C40.8989 10.4065 44.06 12.9294 44.06 16.0307C44.06 18.6644 41.7521 20.9411 38.5911 21.5196C38.4092 21.5565 38.2834 21.6796 38.2694 21.8395C38.1994 22.5903 38.0456 23.3287 37.8358 24.0425C37.7658 24.2886 38.0036 24.5347 38.2973 24.4855L38.3673 24.4732C43.5005 23.9194 47.3609 20.3012 47.3609 16.0307C47.333 11.3172 42.7033 7.48984 36.9966 7.48984ZM22.534 19.2797C23.5131 19.169 24.3383 19.8951 24.2124 20.7565C24.1285 21.3473 23.583 21.8149 22.9256 21.8888C21.9465 21.9995 21.1213 21.2734 21.2472 20.412C21.3311 19.8335 21.8766 19.3536 22.534 19.2797Z" fill="#4168B2"/>
<path d="M36.9966 7.48984H36.3531C34.6048 3.04709 29.4995 -0.0665283 23.7089 -0.0665283C16.3797 -0.0665283 10.4352 4.83157 10.4352 10.8496C10.4352 15.3416 13.7361 19.3043 18.7295 20.9658C18.9533 22.8487 20.8695 24.3009 23.1214 24.1163C25.0656 23.9563 26.6182 22.5533 26.758 20.8427C26.9259 18.7752 25.0516 17.0522 22.7438 17.0522C21.5689 17.0522 20.5058 17.5076 19.7645 18.2213C16.1279 16.9661 13.7361 14.0863 13.7361 10.8619C13.7361 6.44376 18.212 2.85018 23.7229 2.85018C28.4645 2.85018 32.5767 5.55767 33.5138 9.27432L33.7935 10.4065H37.0105C40.8989 10.4065 44.06 12.9294 44.06 16.0307C44.06 18.6644 41.7521 20.9411 38.5911 21.5196C38.4092 21.5565 38.2834 21.6796 38.2694 21.8395C38.1994 22.5903 38.0456 23.3287 37.8358 24.0425C37.7658 24.2886 38.0036 24.5347 38.2973 24.4855L38.3673 24.4732C43.5005 23.9194 47.3609 20.3012 47.3609 16.0307C47.333 11.3172 42.7033 7.48984 36.9966 7.48984ZM22.534 19.2797C23.5131 19.169 24.3383 19.8951 24.2124 20.7565C24.1285 21.3473 23.583 21.8149 22.9256 21.8888C21.9465 21.9995 21.1213 21.2734 21.2472 20.412C21.3311 19.8335 21.8766 19.3536 22.534 19.2797Z" fill="#2838C4"/>
<path d="M10.3644 24.5101H11.0078C12.7562 28.9528 17.8614 32.0664 23.6521 32.0664C30.9813 32.0664 36.9258 27.1683 36.9258 21.1503C36.9258 16.6583 33.6248 12.6955 28.6315 11.0341C28.4077 9.1512 26.4914 7.69899 24.2395 7.8836C22.2953 8.04358 20.7428 9.44656 20.6029 11.1572C20.4351 13.2247 22.3093 14.9477 24.6172 14.9477C25.7921 14.9477 26.8551 14.4923 27.5964 13.7785C31.233 15.0338 33.6248 17.9136 33.6248 21.138C33.6248 25.5561 29.149 29.1497 23.6381 29.1497C18.8965 29.1497 14.7843 26.4422 13.8472 22.7256L13.5674 21.5934H10.3504C6.46201 21.5934 3.30094 19.0705 3.30094 15.9692C3.30094 13.3355 5.6088 11.0587 8.76987 10.4803C8.9517 10.4434 9.07759 10.3203 9.09157 10.1604C9.16151 9.40964 9.31536 8.67123 9.52517 7.95744C9.59511 7.7113 9.35733 7.46517 9.0636 7.51439L8.99366 7.5267C3.86042 8.08051 0 11.6987 0 15.9692C0.0279741 20.695 4.67167 24.5101 10.3644 24.5101ZM24.827 12.7202C23.8479 12.8309 23.0227 12.1048 23.1485 11.2433C23.2325 10.6526 23.778 10.185 24.4353 10.1111C25.4144 10.0004 26.2397 10.7265 26.1138 11.5879C26.0299 12.1787 25.4984 12.6463 24.827 12.7202Z" fill="#2B78FF"/>
</g>
<defs>
<clipPath id="clip0_905_7941">
<rect width="47" height="32" fill="white"/>
</clipPath>
</defs>
</svg>
