<svg width="170" height="36" viewBox="0 0 170 36" fill="none" xmlns="http://www.w3.org/2000/svg">
<g clip-path="url(#clip0_849_844)">
<path d="M40.7301 8.63094H40.0218C38.097 3.73984 32.4765 0.312012 26.1015 0.312012C18.0327 0.312012 11.4883 5.70441 11.4883 12.3297C11.4883 17.275 15.1223 21.6377 20.6196 23.4668C20.866 25.5398 22.9756 27.1385 25.4548 26.9353C27.5952 26.7591 29.3044 25.2146 29.4584 23.3313C29.6432 21.0551 27.5798 19.1583 25.039 19.1583C23.7455 19.1583 22.5752 19.6596 21.7591 20.4454C17.7555 19.0635 15.1223 15.8931 15.1223 12.3433C15.1223 7.47929 20.0499 3.52306 26.1169 3.52306C31.337 3.52306 35.8642 6.50378 36.8959 10.5955L37.2039 11.842H40.7455C45.0263 11.842 48.5064 14.6195 48.5064 18.0338C48.5064 20.9332 45.9656 23.4397 42.4856 24.0765C42.2854 24.1171 42.1468 24.2526 42.1314 24.4288C42.0544 25.2552 41.885 26.0682 41.654 26.854C41.577 27.125 41.8388 27.3959 42.1622 27.3417L42.2392 27.3282C47.8904 26.7185 52.1404 22.7352 52.1404 18.0338C52.1097 12.8446 47.0127 8.63094 40.7301 8.63094ZM24.808 21.6106C25.8859 21.4887 26.7944 22.2881 26.6559 23.2365C26.5635 23.8868 25.9629 24.4017 25.2392 24.483C24.1613 24.6049 23.2528 23.8055 23.3914 22.8571C23.4837 22.2203 24.0843 21.6919 24.808 21.6106Z" fill="#4168B2"/>
<path d="M11.4103 27.3689H12.1187C14.0435 32.26 19.664 35.6878 26.039 35.6878C34.1078 35.6878 40.6522 30.2954 40.6522 23.6701C40.6522 18.7248 37.0181 14.3621 31.5208 12.533C31.2745 10.4601 29.1649 8.86133 26.6857 9.06456C24.5453 9.24069 22.8361 10.7853 22.6821 12.6685C22.4973 14.9447 24.5607 16.8415 27.1014 16.8415C28.3949 16.8415 29.5652 16.3402 30.3813 15.5544C34.385 16.9364 37.0181 20.1068 37.0181 23.6566C37.0181 28.5206 32.0906 32.4768 26.0236 32.4768C20.8034 32.4768 16.2763 29.4961 15.2446 25.4043L14.9366 24.1579H11.3949C7.11413 24.1579 3.63406 21.3804 3.63406 17.9661C3.63406 15.0667 6.17482 12.5601 9.65489 11.9233C9.85507 11.8827 9.99366 11.7472 10.0091 11.5711C10.0861 10.7446 10.2554 9.93168 10.4864 9.14585C10.5634 8.87488 10.3016 8.6039 9.97826 8.6581L9.90127 8.67165C4.25 9.28134 0 13.2647 0 17.9661C0.0307971 23.1688 5.14312 27.3689 11.4103 27.3689ZM27.3324 14.3892C26.2545 14.5112 25.346 13.7118 25.4846 12.7634C25.577 12.113 26.1775 11.5982 26.9013 11.5169C27.9792 11.3949 28.8877 12.1943 28.7491 13.1427C28.6567 13.7931 28.0716 14.3079 27.3324 14.3892Z" fill="#5A96F6"/>
<path d="M40.7301 8.63094H40.0218C38.097 3.73984 32.4765 0.312012 26.1015 0.312012C18.0327 0.312012 11.4883 5.70441 11.4883 12.3297C11.4883 17.275 15.1223 21.6377 20.6196 23.4668C20.866 25.5398 22.9756 27.1385 25.4548 26.9353C27.5952 26.7591 29.3044 25.2146 29.4584 23.3313C29.6432 21.0551 27.5798 19.1583 25.039 19.1583C23.7455 19.1583 22.5752 19.6596 21.7591 20.4454C17.7555 19.0635 15.1223 15.8931 15.1223 12.3433C15.1223 7.47929 20.0499 3.52306 26.1169 3.52306C31.337 3.52306 35.8642 6.50378 36.8959 10.5955L37.2039 11.842H40.7455C45.0263 11.842 48.5064 14.6195 48.5064 18.0338C48.5064 20.9332 45.9656 23.4397 42.4856 24.0765C42.2854 24.1171 42.1468 24.2526 42.1314 24.4288C42.0544 25.2552 41.885 26.0682 41.654 26.854C41.577 27.125 41.8388 27.3959 42.1622 27.3417L42.2392 27.3282C47.8904 26.7185 52.1404 22.7352 52.1404 18.0338C52.1097 12.8446 47.0127 8.63094 40.7301 8.63094ZM24.808 21.6106C25.8859 21.4887 26.7944 22.2881 26.6559 23.2365C26.5635 23.8868 25.9629 24.4017 25.2392 24.483C24.1613 24.6049 23.2528 23.8055 23.3914 22.8571C23.4837 22.2203 24.0843 21.6919 24.808 21.6106Z" fill="#4168B2"/>
<path d="M40.7301 8.63094H40.0218C38.097 3.73984 32.4765 0.312012 26.1015 0.312012C18.0327 0.312012 11.4883 5.70441 11.4883 12.3297C11.4883 17.275 15.1223 21.6377 20.6196 23.4668C20.866 25.5398 22.9756 27.1385 25.4548 26.9353C27.5952 26.7591 29.3044 25.2146 29.4584 23.3313C29.6432 21.0551 27.5798 19.1583 25.039 19.1583C23.7455 19.1583 22.5752 19.6596 21.7591 20.4454C17.7555 19.0635 15.1223 15.8931 15.1223 12.3433C15.1223 7.47929 20.0499 3.52306 26.1169 3.52306C31.337 3.52306 35.8642 6.50378 36.8959 10.5955L37.2039 11.842H40.7455C45.0263 11.842 48.5064 14.6195 48.5064 18.0338C48.5064 20.9332 45.9656 23.4397 42.4856 24.0765C42.2854 24.1171 42.1468 24.2526 42.1314 24.4288C42.0544 25.2552 41.885 26.0682 41.654 26.854C41.577 27.125 41.8388 27.3959 42.1622 27.3417L42.2392 27.3282C47.8904 26.7185 52.1404 22.7352 52.1404 18.0338C52.1097 12.8446 47.0127 8.63094 40.7301 8.63094ZM24.808 21.6106C25.8859 21.4887 26.7944 22.2881 26.6559 23.2365C26.5635 23.8868 25.9629 24.4017 25.2392 24.483C24.1613 24.6049 23.2528 23.8055 23.3914 22.8571C23.4837 22.2203 24.0843 21.6919 24.808 21.6106Z" fill="#2838C4"/>
<path d="M11.4103 27.3689H12.1187C14.0435 32.26 19.664 35.6878 26.039 35.6878C34.1078 35.6878 40.6522 30.2954 40.6522 23.6701C40.6522 18.7248 37.0181 14.3621 31.5208 12.533C31.2745 10.4601 29.1649 8.86133 26.6857 9.06456C24.5453 9.24069 22.8361 10.7853 22.6821 12.6685C22.4973 14.9447 24.5607 16.8415 27.1014 16.8415C28.3949 16.8415 29.5652 16.3402 30.3813 15.5544C34.385 16.9364 37.0181 20.1068 37.0181 23.6566C37.0181 28.5206 32.0906 32.4768 26.0236 32.4768C20.8034 32.4768 16.2763 29.4961 15.2446 25.4043L14.9366 24.1579H11.3949C7.11413 24.1579 3.63406 21.3804 3.63406 17.9661C3.63406 15.0667 6.17482 12.5601 9.65489 11.9233C9.85507 11.8827 9.99366 11.7472 10.0091 11.5711C10.0861 10.7446 10.2554 9.93168 10.4864 9.14585C10.5634 8.87488 10.3016 8.6039 9.97826 8.6581L9.90127 8.67165C4.25 9.28134 0 13.2647 0 17.9661C0.0307971 23.1688 5.14312 27.3689 11.4103 27.3689ZM27.3324 14.3892C26.2545 14.5112 25.346 13.7118 25.4846 12.7634C25.577 12.113 26.1775 11.5982 26.9013 11.5169C27.9792 11.3949 28.8877 12.1943 28.7491 13.1427C28.6567 13.7931 28.0716 14.3079 27.3324 14.3892Z" fill="#2B78FF"/>
<path d="M156.957 8.98315V17.5189L163.409 8.98315H168.029L163.086 15.473L169.261 27.152H163.948L159.837 19.2666L156.942 22.9925V27.1656H152.199V8.98315H156.957Z" fill="#4168B2"/>
<path d="M156.957 8.98315V17.5189L163.409 8.98315H168.029L163.086 15.473L169.261 27.152H163.948L159.837 19.2666L156.942 22.9925V27.1656H152.199V8.98315H156.957Z" fill="#2838C4"/>
<path d="M71.4188 12.9801L67.3228 14.186C66.7685 12.7498 65.5982 12.0317 63.812 12.0317C61.9025 12.0317 60.9478 12.5737 60.9478 13.6711C60.9478 14.1047 61.1326 14.4705 61.4868 14.7821C61.8409 15.0802 62.6417 15.3512 63.9044 15.5679C65.9986 15.9473 67.5384 16.3131 68.5085 16.706C69.4786 17.0854 70.3101 17.7086 70.9723 18.5487C71.6344 19.4022 71.9732 20.3371 71.9732 21.3939C71.9732 23.0333 71.2649 24.4559 69.8328 25.6482C68.4007 26.8405 66.2757 27.4502 63.4578 27.4502C61.3482 27.4502 59.5466 27.0302 58.0683 26.1766C56.59 25.323 55.6045 24.0765 55.1426 22.3965L59.6082 21.5023C60.1163 23.1959 61.5022 24.0494 63.7966 24.0494C64.9053 24.0494 65.7214 23.8598 66.2603 23.4804C66.7993 23.101 67.0765 22.6539 67.0765 22.1255C67.0765 21.5971 66.8301 21.1771 66.3373 20.8926C65.8446 20.5945 64.8899 20.3235 63.4886 20.0661C60.8708 19.5919 58.9922 18.928 57.8835 18.1016C56.7748 17.2751 56.2051 16.0557 56.2051 14.4569C56.2051 12.8446 56.8672 11.4762 58.2069 10.3652C59.5312 9.25423 61.3482 8.69873 63.6272 8.69873C67.6616 8.69873 70.264 10.1349 71.4188 12.9801Z" fill="#2B78FF"/>
<path d="M78.7796 8.98315V17.5189L85.2316 8.98315H89.8512L84.9083 15.473L91.0831 27.152H85.7706L81.6592 19.2666L78.7642 22.9925V27.1656H74.0215V8.98315H78.7796Z" fill="#2B78FF"/>
<path d="M109.452 8.98315L102.985 19.497V27.152H98.1803V19.497L91.7129 8.98315H97.3026L101.229 15.8659L105.14 8.98315H109.452Z" fill="#2B78FF"/>
<path d="M124.774 12.9801L120.678 14.186C120.124 12.7498 118.954 12.0317 117.168 12.0317C115.258 12.0317 114.303 12.5737 114.303 13.6711C114.303 14.1047 114.488 14.4705 114.842 14.7821C115.197 15.0802 115.997 15.3512 117.26 15.5679C119.354 15.9473 120.894 16.3131 121.864 16.706C122.834 17.0854 123.666 17.7086 124.328 18.5487C124.99 19.3887 125.329 20.3371 125.329 21.3939C125.329 23.0333 124.605 24.4559 123.188 25.6482C121.756 26.8405 119.631 27.4502 116.829 27.4502C114.719 27.4502 112.918 27.0302 111.439 26.1766C109.961 25.323 108.976 24.0765 108.514 22.3965L112.979 21.5023C113.487 23.1959 114.873 24.0494 117.168 24.0494C118.276 24.0494 119.092 23.8598 119.631 23.4804C120.17 23.101 120.447 22.6539 120.447 22.1255C120.447 21.5971 120.201 21.1771 119.708 20.8926C119.216 20.5945 118.261 20.3235 116.86 20.0661C114.242 19.5919 112.363 18.928 111.255 18.1016C110.146 17.2751 109.576 16.0557 109.576 14.4569C109.576 12.8446 110.238 11.4762 111.578 10.3652C112.902 9.25423 114.719 8.69873 116.998 8.69873C121.033 8.69873 123.62 10.1349 124.774 12.9801Z" fill="#4168B2"/>
<path d="M124.774 12.9801L120.678 14.186C120.124 12.7498 118.954 12.0317 117.168 12.0317C115.258 12.0317 114.303 12.5737 114.303 13.6711C114.303 14.1047 114.488 14.4705 114.842 14.7821C115.197 15.0802 115.997 15.3512 117.26 15.5679C119.354 15.9473 120.894 16.3131 121.864 16.706C122.834 17.0854 123.666 17.7086 124.328 18.5487C124.99 19.3887 125.329 20.3371 125.329 21.3939C125.329 23.0333 124.605 24.4559 123.188 25.6482C121.756 26.8405 119.631 27.4502 116.829 27.4502C114.719 27.4502 112.918 27.0302 111.439 26.1766C109.961 25.323 108.976 24.0765 108.514 22.3965L112.979 21.5023C113.487 23.1959 114.873 24.0494 117.168 24.0494C118.276 24.0494 119.092 23.8598 119.631 23.4804C120.17 23.101 120.447 22.6539 120.447 22.1255C120.447 21.5971 120.201 21.1771 119.708 20.8926C119.216 20.5945 118.261 20.3235 116.86 20.0661C114.242 19.5919 112.363 18.928 111.255 18.1016C110.146 17.2751 109.576 16.0557 109.576 14.4569C109.576 12.8446 110.238 11.4762 111.578 10.3652C112.902 9.25423 114.719 8.69873 116.998 8.69873C121.033 8.69873 123.62 10.1349 124.774 12.9801Z" fill="#2838C4"/>
<path d="M132.689 8.98315V27.152H127.885V8.98315H132.689Z" fill="#4168B2"/>
<path d="M132.689 8.98315V27.152H127.885V8.98315H132.689Z" fill="#2838C4"/>
<path d="M141.081 23.5616H149.273V27.152H136.199V8.98315H141.081V23.5616Z" fill="#4168B2"/>
<path d="M141.081 23.5616H149.273V27.152H136.199V8.98315H141.081V23.5616Z" fill="#2838C4"/>
<path d="M46.9803 33.9129C46.4414 34.3871 45.6099 34.8342 44.5166 34.8342C42.8689 34.8342 41.791 33.791 41.791 32.4903C41.791 31.2167 42.8843 30.1599 44.4704 30.1599C45.3789 30.1599 46.2412 30.4715 46.8109 30.9322L46.2258 31.4335C45.7792 31.0677 45.1017 30.8238 44.4858 30.8238C43.3925 30.8238 42.6841 31.5825 42.6841 32.4903C42.6841 33.4116 43.4079 34.1432 44.5166 34.1432C45.3019 34.1432 45.964 33.8045 46.3798 33.3981L46.9803 33.9129Z" fill="#4C4C4C"/>
<path d="M53.093 30.2954V34.0213H56.1573V34.6987H52.2461V30.2954H53.093Z" fill="#4C4C4C"/>
<path d="M63.9959 30.1599C65.5666 30.1599 66.8139 31.2032 66.8139 32.4903C66.8139 33.791 65.5666 34.8342 63.9959 34.8342C62.4253 34.8342 61.1934 33.791 61.1934 32.4903C61.1934 31.1896 62.4253 30.1599 63.9959 30.1599ZM63.9959 34.1568C65.0738 34.1568 65.9208 33.3981 65.9208 32.4903C65.9208 31.5825 65.0738 30.8373 63.9959 30.8373C62.9334 30.8373 62.1019 31.5825 62.1019 32.4903C62.1019 33.3981 62.9334 34.1568 63.9959 34.1568Z" fill="#4C4C4C"/>
<path d="M76.0229 30.2954V33.1271C76.0229 34.211 75.0836 34.8207 73.8055 34.8207C72.5428 34.8207 71.6035 34.211 71.6035 33.1271V30.2954H72.4658V33.1271C72.4658 33.791 73.0664 34.1568 73.8209 34.1568C74.5908 34.1568 75.176 33.791 75.176 33.1271V30.2954H76.0229Z" fill="#4C4C4C"/>
<path d="M81.166 34.6851V30.2817H83.5528C84.4459 30.2817 84.9541 30.4985 85.3853 30.8643C85.8318 31.2708 86.0628 31.8398 86.0628 32.4766C86.0628 33.1405 85.801 33.7367 85.3237 34.1431C84.8925 34.4818 84.4459 34.6851 83.5528 34.6851H81.166ZM83.5066 34.0212C84.138 34.0212 84.3536 33.8993 84.6461 33.6825C84.9695 33.3979 85.1543 32.9644 85.1543 32.5037C85.1543 32.0431 84.9849 31.6366 84.6769 31.3521C84.3998 31.1218 84.1226 30.9863 83.5066 30.9863H82.0129V34.0347L83.5066 34.0212Z" fill="#4C4C4C"/>
<path d="M100.598 31.3251C100.321 31.1083 99.7053 30.8103 98.7968 30.8103C98.1962 30.8103 97.6727 30.9728 97.6727 31.447C97.6727 31.9212 98.4118 31.9483 99.1663 31.989C100.059 32.0432 101.461 32.1245 101.461 33.3439C101.461 34.4142 100.46 34.8207 99.2587 34.8207C97.9499 34.8207 97.0876 34.3465 96.5332 33.8994L97.0567 33.371C97.4571 33.6961 98.1654 34.1703 99.2741 34.1703C100.013 34.1703 100.598 33.9536 100.598 33.4523C100.598 32.8968 100.029 32.7884 99.151 32.7206C98.0577 32.6529 96.795 32.5716 96.795 31.5148C96.795 30.4715 97.8883 30.1599 98.7968 30.1599C99.8439 30.1599 100.691 30.5257 101.091 30.7967L100.598 31.3251Z" fill="#4C4C4C"/>
<path d="M109.453 32.7342H107.528V34.0213H110.901V34.6987H106.666V30.2954H110.716V30.9728H107.528V32.0703H109.438L109.453 32.7342Z" fill="#4C4C4C"/>
<path d="M116.229 34.6851V30.2817H118.969C119.632 30.2817 120.094 30.4443 120.417 30.7424C120.663 30.9727 120.817 31.2843 120.817 31.6231C120.817 32.2192 120.371 32.6663 119.724 32.8831L120.91 34.6715H119.924L118.862 32.9779H117.091V34.6715L116.229 34.6851ZM117.091 30.9592V32.314H119.139C119.585 32.314 119.97 32.0024 119.97 31.6231C119.97 31.4605 119.893 31.3114 119.77 31.1895C119.539 30.9727 119.262 30.9592 118.985 30.9592H117.091Z" fill="#4C4C4C"/>
<path d="M131.071 30.2954L128.761 34.6987H127.976L125.666 30.2954H126.636L128.361 33.7368H128.407L130.132 30.2954H131.071Z" fill="#4C4C4C"/>
<path d="M137.725 34.6851V30.2817H138.587V34.6851H137.725Z" fill="#4C4C4C"/>
<path d="M150.551 33.9129C150.012 34.3871 149.18 34.8342 148.087 34.8342C146.439 34.8342 145.361 33.791 145.361 32.4903C145.361 31.2167 146.455 30.1599 148.041 30.1599C148.949 30.1599 149.812 30.4715 150.381 30.9322L149.796 31.4335C149.35 31.0677 148.672 30.8238 148.056 30.8238C146.963 30.8238 146.254 31.5825 146.254 32.4903C146.254 33.4116 146.978 34.1432 148.087 34.1432C148.872 34.1432 149.534 33.8045 149.95 33.3981L150.551 33.9129Z" fill="#4C4C4C"/>
<path d="M158.404 32.7342H156.495V34.0213H159.867V34.6987H155.633V30.2954H159.683V30.9728H156.495V32.0703H158.404V32.7342Z" fill="#4C4C4C"/>
<path d="M169.137 31.3251C168.86 31.1083 168.244 30.8103 167.336 30.8103C166.735 30.8103 166.212 30.9728 166.212 31.447C166.212 31.9212 166.951 31.9483 167.705 31.989C168.599 32.0432 170 32.1245 170 33.3439C170 34.4142 168.999 34.8207 167.798 34.8207C166.489 34.8207 165.627 34.3465 165.072 33.8994L165.596 33.371C165.996 33.6961 166.705 34.1703 167.813 34.1703C168.552 34.1703 169.137 33.9536 169.137 33.4523C169.137 32.8968 168.568 32.7884 167.69 32.7206C166.597 32.6529 165.334 32.5716 165.334 31.5148C165.334 30.4715 166.427 30.1599 167.336 30.1599C168.383 30.1599 169.23 30.5257 169.63 30.7967L169.137 31.3251Z" fill="#4C4C4C"/>
</g>
<defs>
<clipPath id="clip0_849_844">
<rect width="170" height="35.3758" fill="white" transform="translate(0 0.312012)"/>
</clipPath>
</defs>
</svg>
