<svg width="20" height="18" viewBox="0 0 20 18" fill="none" xmlns="http://www.w3.org/2000/svg">
<path d="M17.9399 13.3099C17.9339 12.5215 17.6178 11.7671 17.0599 11.2099L16.7999 10.9399C15.9486 10.0885 14.7939 9.61008 13.5899 9.60994C12.8964 9.61485 12.2129 9.77547 11.5899 10.0799L10.7599 10.4999C10.0514 10.1478 9.40327 9.6854 8.83986 9.12994C8.28423 8.57269 7.82469 7.9273 7.47986 7.21994L7.88986 6.38994C8.314 5.53447 8.45633 4.56666 8.29644 3.6253C8.13656 2.68394 7.68267 1.8174 6.99986 1.14994L6.73986 0.889941C6.18679 0.330788 5.43626 0.0111837 4.64986 -5.8651e-05H3.85986C3.06421 -5.8651e-05 2.30115 0.316012 1.73854 0.878621C1.17593 1.44123 0.859863 2.20429 0.859863 2.99994V3.06994C0.892929 4.68402 1.14868 6.28581 1.61986 7.82994C2.22676 9.83079 3.30732 11.6557 4.76986 13.1499C6.25549 14.6208 8.07853 15.7057 10.0799 16.3099C11.6258 16.7895 13.2316 17.0487 14.8499 17.0799H14.9299C15.7255 17.0799 16.4886 16.7639 17.0512 16.2013C17.6138 15.6387 17.9299 14.8756 17.9299 14.0799V13.2699L17.9399 13.3099ZM14.9299 15.1099C13.4987 15.0859 12.0781 14.8603 10.7099 14.4399C9.01694 13.9249 7.47327 13.0089 6.20986 11.7699C4.97398 10.5076 4.06439 8.963 3.55986 7.26994C3.13947 5.90172 2.91392 4.48109 2.88986 3.04994V2.99994C2.88986 2.73472 2.99522 2.48037 3.18276 2.29283C3.37029 2.1053 3.62465 1.99994 3.88986 1.99994H4.67986C4.81217 2.00049 4.94305 2.02729 5.06493 2.07879C5.1868 2.13028 5.29725 2.20545 5.38986 2.29994L5.64986 2.55994C6.02594 2.93502 6.27388 3.41934 6.35829 3.94374C6.44269 4.46814 6.35925 5.0058 6.11986 5.47994L5.48986 6.72994C5.43044 6.86022 5.39968 7.00175 5.39968 7.14494C5.39968 7.28814 5.43044 7.42966 5.48986 7.55994C5.95283 8.6817 6.63246 9.70114 7.48986 10.5599C8.34472 11.4221 9.36519 12.1025 10.4899 12.5599C10.6188 12.6179 10.7585 12.6479 10.8999 12.6479C11.0412 12.6479 11.1809 12.6179 11.3099 12.5599L12.5699 11.9299C12.9193 11.7614 13.3019 11.6726 13.6899 11.6699C14.3635 11.6722 15.0095 11.9378 15.4899 12.4099L15.7499 12.6799C15.9346 12.8662 16.0388 13.1176 16.0399 13.3799V14.1699C16.0325 14.3059 15.9975 14.439 15.9369 14.561C15.8764 14.683 15.7915 14.7913 15.6876 14.8793C15.5836 14.9673 15.4628 15.0332 15.3325 15.0728C15.2022 15.1125 15.0652 15.1251 14.9299 15.1099ZM19.7099 1.70994L15.7099 5.70994C15.6169 5.80367 15.5063 5.87806 15.3844 5.92883C15.2626 5.9796 15.1319 6.00574 14.9999 6.00574C14.8679 6.00574 14.7371 5.9796 14.6153 5.92883C14.4934 5.87806 14.3828 5.80367 14.2899 5.70994L12.2899 3.70994C12.1016 3.52164 11.9958 3.26624 11.9958 2.99994C11.9958 2.86808 12.0217 2.73751 12.0722 2.61569C12.1227 2.49387 12.1966 2.38318 12.2899 2.28994C12.3831 2.1967 12.4938 2.12274 12.6156 2.07228C12.7374 2.02182 12.868 1.99585 12.9999 1.99585C13.2662 1.99585 13.5216 2.10164 13.7099 2.28994L14.9999 3.58994L18.2899 0.289941C18.4782 0.101638 18.7336 -0.00415039 18.9999 -0.00415039C19.2662 -0.00415039 19.5216 0.101638 19.7099 0.289941C19.8982 0.478245 20.004 0.73364 20.004 0.999941C20.004 1.26624 19.8982 1.52164 19.7099 1.70994Z" fill="#0153C0"/>
</svg>
