<svg width="24" height="24" viewBox="0 0 24 24" fill="none" xmlns="http://www.w3.org/2000/svg">
<path d="M22.9302 10.36C22.9349 10.3101 22.9349 10.2599 22.9302 10.21C22.9612 10.1428 22.9847 10.0724 23.0002 10V9.85002C23.0037 9.79341 23.0037 9.73663 23.0002 9.68002C23.0002 9.68002 23.0002 9.68002 23.0002 9.62002C22.9772 9.57452 22.9505 9.53104 22.9202 9.49002C22.9041 9.45136 22.884 9.41449 22.8602 9.38002L17.8602 3.38002C17.8136 3.32903 17.7597 3.28522 17.7002 3.25002L17.5502 3.15002L17.3802 3.10002C17.2641 3.0348 17.1333 3.00038 17.0002 3.00002H7.0002C6.93052 2.99055 6.85988 2.99055 6.7902 3.00002L6.6202 3.05002C6.5665 3.07744 6.51617 3.111 6.4702 3.15002C6.41074 3.18522 6.35683 3.22903 6.3102 3.28002L1.3102 9.28002C1.28642 9.31449 1.26631 9.35136 1.2502 9.39002C1.21994 9.43104 1.19318 9.47452 1.1702 9.52002C1.1702 9.52002 1.1702 9.52002 1.1702 9.58002C1.16538 9.63658 1.16538 9.69346 1.1702 9.75002L1.0002 10C0.995376 10.0566 0.995376 10.1135 1.0002 10.17C0.995503 10.2199 0.995503 10.2701 1.0002 10.32V10.38C1.02662 10.4289 1.05671 10.4757 1.0902 10.52C1.11123 10.5581 1.13461 10.5948 1.1602 10.63L11.0002 21.42C11.053 21.5561 11.1349 21.679 11.2402 21.78C11.3995 21.9217 11.5999 22.0089 11.8122 22.0287C12.0244 22.0484 12.2375 21.9999 12.4202 21.89L12.5202 21.82L12.6202 21.75L12.6902 21.67L22.6902 10.74C22.7158 10.7048 22.7392 10.6681 22.7602 10.63C22.7937 10.5857 22.8238 10.5389 22.8502 10.49L22.9302 10.36ZM7.4702 5.00002H9.0002L8.3202 9.00002H4.1402L7.4702 5.00002ZM16.5302 5.00002L19.8602 9.00002H15.6802L15.0002 5.00002H16.5302ZM10.0002 11H14.0002L12.0002 17.52L10.0002 11ZM13.6102 9.00002H10.3102L11.0002 5.16002C11.0048 5.10679 11.0048 5.05325 11.0002 5.00002H13.0002C12.9956 5.05325 12.9956 5.10679 13.0002 5.16002L13.6102 9.00002ZM8.0002 11V11.06C7.99477 11.1266 7.99477 11.1935 8.0002 11.26L9.7402 17.04L4.2602 11H8.0002ZM15.9402 11.29C15.9456 11.2235 15.9456 11.1566 15.9402 11.09V11H19.7002L14.1902 17.05L15.9402 11.29Z" fill="#0153C0"/>
</svg>
