<svg width="19" height="20" viewBox="0 0 19 20" fill="none" xmlns="http://www.w3.org/2000/svg">
<path d="M18.8899 8.50005C18.8926 9.68313 18.4334 10.8205 17.61 11.67C17.205 12.0915 16.7189 12.4266 16.181 12.6552C15.6431 12.8838 15.0644 13.0011 14.48 13H14C13.7347 13 13.4804 12.8947 13.2928 12.7072C13.1053 12.5196 13 12.2653 13 12C13 11.7348 13.1053 11.4805 13.2928 11.2929C13.4804 11.1054 13.7347 11 14 11H14.47C14.787 10.9993 15.1007 10.9352 15.3926 10.8116C15.6845 10.688 15.9488 10.5072 16.17 10.28C16.6264 9.79988 16.8806 9.16253 16.88 8.50005C16.8909 7.85769 16.6502 7.23653 16.2092 6.76936C15.7681 6.30218 15.1619 6.02607 14.52 6.00005C14.2547 6.00005 14.0004 5.89469 13.8128 5.70716C13.6253 5.51962 13.52 5.26526 13.52 5.00005C13.2689 4.15979 12.7562 3.42157 12.0566 2.8928C11.3569 2.36402 10.5068 2.07229 9.62995 2.06005C8.54421 2.05558 7.49717 2.46297 6.69995 3.20005C6.31622 3.54657 6.00873 3.96909 5.79698 4.44078C5.58524 4.91247 5.47387 5.42303 5.46995 5.94005C5.46496 6.03332 5.46496 6.12678 5.46995 6.22005V6.37005C5.46995 6.47005 5.46995 6.55005 5.46995 6.55005C5.50868 6.70788 5.50837 6.87278 5.46902 7.03046C5.42968 7.18814 5.3525 7.33386 5.24417 7.455C5.13583 7.57614 4.9996 7.66905 4.84728 7.72569C4.69495 7.78232 4.53111 7.80098 4.36995 7.78005C4.22718 7.76206 4.08272 7.76206 3.93995 7.78005C3.73557 7.77831 3.53308 7.81921 3.3454 7.90014C3.15772 7.98106 2.98898 8.10024 2.84995 8.25005C2.69904 8.4029 2.57984 8.58407 2.49918 8.78314C2.41852 8.98221 2.378 9.19526 2.37995 9.41005C2.37822 9.62331 2.41888 9.83479 2.49956 10.0322C2.58025 10.2296 2.69935 10.409 2.84995 10.56C2.99159 10.7044 3.1615 10.818 3.34906 10.8937C3.53661 10.9694 3.73777 11.0056 3.93995 11H5.99995C6.26517 11 6.51952 11.1054 6.70706 11.2929C6.89459 11.4805 6.99995 11.7348 6.99995 12C6.99995 12.2653 6.89459 12.5196 6.70706 12.7072C6.51952 12.8947 6.26517 13 5.99995 13H3.93995C3.46805 13.0004 3.0009 12.9058 2.56627 12.722C2.13164 12.5382 1.73841 12.2689 1.40995 11.93C0.748211 11.2441 0.378418 10.3282 0.378418 9.37505C0.378418 8.42194 0.748211 7.506 1.40995 6.82005C1.96994 6.26634 2.69813 5.91456 3.47995 5.82005C3.49962 5.05079 3.67349 4.2933 3.99127 3.59247C4.30905 2.89164 4.76427 2.26173 5.32995 1.74005C6.48582 0.659339 8.00757 0.0556404 9.58995 0.0500488C10.8333 0.0562079 12.045 0.442793 13.0622 1.15785C14.0793 1.87292 14.8533 2.88219 15.28 4.05005C16.3085 4.2496 17.234 4.80492 17.8941 5.61861C18.5542 6.4323 18.9068 7.45241 18.8899 8.50005ZM16 17C16 17.7957 15.6839 18.5588 15.1213 19.1214C14.5587 19.684 13.7956 20 13 20H6.99995C6.2043 20 5.44124 19.684 4.87863 19.1214C4.31602 18.5588 3.99995 17.7957 3.99995 17C3.99995 16.2044 4.31602 15.4413 4.87863 14.8787C5.44124 14.3161 6.2043 14 6.99995 14H8.99995V10C8.99995 9.73483 9.10531 9.48048 9.29284 9.29294C9.48038 9.10541 9.73473 9.00005 9.99995 9.00005C10.2652 9.00005 10.5195 9.10541 10.7071 9.29294C10.8946 9.48048 11 9.73483 11 10V14H13C13.7956 14 14.5587 14.3161 15.1213 14.8787C15.6839 15.4413 16 16.2044 16 17ZM14 17C14 16.7348 13.8946 16.4805 13.7071 16.2929C13.5195 16.1054 13.2652 16 13 16H6.99995C6.73474 16 6.48038 16.1054 6.29284 16.2929C6.10531 16.4805 5.99995 16.7348 5.99995 17C5.99995 17.2653 6.10531 17.5196 6.29284 17.7072C6.48038 17.8947 6.73474 18 6.99995 18H13C13.2652 18 13.5195 17.8947 13.7071 17.7072C13.8946 17.5196 14 17.2653 14 17Z" fill="#0153C0"/>
</svg>
